<mxfile host="app.diagrams.net" modified="2021-10-01T09:56:30.631Z" agent="5.0 (Windows NT 10.0; Win64; x64) AppleWebKit/537.36 (KHTML, like Gecko) Chrome/94.0.4606.61 Safari/537.36" etag="jChnGPTOP5XF7i8-H5xm" version="15.3.8" type="github">
  <diagram id="kgpKYQtTHZ0yAKxKKP6v" name="Page-1">
    <mxGraphModel dx="868" dy="450" grid="1" gridSize="10" guides="1" tooltips="1" connect="1" arrows="1" fold="1" page="1" pageScale="1" pageWidth="850" pageHeight="1100" math="0" shadow="0">
      <root>
        <mxCell id="0" />
        <mxCell id="1" parent="0" />
        <mxCell id="EwP4T6tAKVzHk8vb18PM-1" value="alt" style="shape=umlFrame;whiteSpace=wrap;html=1;fontSize=14;fontFamily=Times New Roman;" vertex="1" parent="1">
          <mxGeometry x="90" y="250" width="780" height="360" as="geometry" />
        </mxCell>
        <mxCell id="EwP4T6tAKVzHk8vb18PM-2" value=":BasicUser" style="shape=umlLifeline;perimeter=lifelinePerimeter;container=1;collapsible=0;recursiveResize=0;rounded=0;shadow=0;strokeWidth=1;fontSize=14;fontFamily=Times New Roman;" vertex="1" parent="1">
          <mxGeometry x="130" y="90" width="100" height="810" as="geometry" />
        </mxCell>
        <mxCell id="EwP4T6tAKVzHk8vb18PM-3" value="" style="points=[];perimeter=orthogonalPerimeter;rounded=0;shadow=0;strokeWidth=1;fontSize=14;fontFamily=Times New Roman;" vertex="1" parent="EwP4T6tAKVzHk8vb18PM-2">
          <mxGeometry x="45" y="70" width="10" height="720" as="geometry" />
        </mxCell>
        <mxCell id="EwP4T6tAKVzHk8vb18PM-23" value="&lt;div style=&quot;text-align: center ; font-size: 14px&quot;&gt;&lt;span style=&quot;background-color: rgb(255 , 255 , 255) ; font-size: 14px&quot;&gt;[QR đúng định dạng]&lt;/span&gt;&lt;/div&gt;" style="text;whiteSpace=wrap;html=1;fontSize=14;fontFamily=Times New Roman;" vertex="1" parent="EwP4T6tAKVzHk8vb18PM-2">
          <mxGeometry x="-30" y="390" width="60" height="50" as="geometry" />
        </mxCell>
        <mxCell id="EwP4T6tAKVzHk8vb18PM-4" value=":Tada App" style="shape=umlLifeline;perimeter=lifelinePerimeter;container=1;collapsible=0;recursiveResize=0;rounded=0;shadow=0;strokeWidth=1;fontSize=14;fontFamily=Times New Roman;" vertex="1" parent="1">
          <mxGeometry x="310" y="90" width="100" height="810" as="geometry" />
        </mxCell>
        <mxCell id="EwP4T6tAKVzHk8vb18PM-5" value="" style="points=[];perimeter=orthogonalPerimeter;rounded=0;shadow=0;strokeWidth=1;fontSize=14;fontFamily=Times New Roman;" vertex="1" parent="EwP4T6tAKVzHk8vb18PM-4">
          <mxGeometry x="45" y="80" width="10" height="170" as="geometry" />
        </mxCell>
        <mxCell id="EwP4T6tAKVzHk8vb18PM-10" value="Thông báo sưu tầm &#xa;thành công" style="verticalAlign=bottom;endArrow=open;dashed=1;endSize=8;shadow=0;strokeWidth=1;fontSize=14;fontFamily=Times New Roman;" edge="1" parent="EwP4T6tAKVzHk8vb18PM-4">
          <mxGeometry x="-0.0909" y="-10" relative="1" as="geometry">
            <mxPoint x="-125" y="660" as="targetPoint" />
            <mxPoint x="50" y="660" as="sourcePoint" />
            <mxPoint as="offset" />
          </mxGeometry>
        </mxCell>
        <mxCell id="EwP4T6tAKVzHk8vb18PM-35" value="" style="html=1;points=[];perimeter=orthogonalPerimeter;fontFamily=Times New Roman;fontSize=14;" vertex="1" parent="EwP4T6tAKVzHk8vb18PM-4">
          <mxGeometry x="55" y="110" width="10" height="40" as="geometry" />
        </mxCell>
        <mxCell id="EwP4T6tAKVzHk8vb18PM-36" value="Kiểm tra định dạng&amp;nbsp;" style="edgeStyle=orthogonalEdgeStyle;html=1;align=left;spacingLeft=2;endArrow=block;rounded=0;entryX=1;entryY=0;fontFamily=Times New Roman;fontSize=14;exitX=1.011;exitY=0.054;exitDx=0;exitDy=0;exitPerimeter=0;" edge="1" target="EwP4T6tAKVzHk8vb18PM-35" parent="EwP4T6tAKVzHk8vb18PM-4" source="EwP4T6tAKVzHk8vb18PM-5">
          <mxGeometry relative="1" as="geometry">
            <mxPoint x="60" y="90" as="sourcePoint" />
            <Array as="points">
              <mxPoint x="90" y="90" />
              <mxPoint x="90" y="110" />
            </Array>
          </mxGeometry>
        </mxCell>
        <mxCell id="EwP4T6tAKVzHk8vb18PM-11" value="Quét mã QR" style="verticalAlign=bottom;endArrow=block;entryX=0;entryY=0;shadow=0;strokeWidth=1;fontSize=14;fontFamily=Times New Roman;" edge="1" parent="1" source="EwP4T6tAKVzHk8vb18PM-3" target="EwP4T6tAKVzHk8vb18PM-5">
          <mxGeometry relative="1" as="geometry">
            <mxPoint x="285" y="170" as="sourcePoint" />
          </mxGeometry>
        </mxCell>
        <mxCell id="EwP4T6tAKVzHk8vb18PM-12" value=":Cashier" style="shape=umlLifeline;perimeter=lifelinePerimeter;container=1;collapsible=0;recursiveResize=0;rounded=0;shadow=0;strokeWidth=1;fontSize=14;fontFamily=Times New Roman;" vertex="1" parent="1">
          <mxGeometry x="740" y="90" width="100" height="810" as="geometry" />
        </mxCell>
        <mxCell id="EwP4T6tAKVzHk8vb18PM-13" value="" style="points=[];perimeter=orthogonalPerimeter;rounded=0;shadow=0;strokeWidth=1;fontSize=14;fontFamily=Times New Roman;" vertex="1" parent="EwP4T6tAKVzHk8vb18PM-12">
          <mxGeometry x="45" y="190" width="10" height="600" as="geometry" />
        </mxCell>
        <mxCell id="EwP4T6tAKVzHk8vb18PM-18" value="Thêm mã vào dữ liệu &#xa;người dùng" style="verticalAlign=bottom;endArrow=block;shadow=0;strokeWidth=1;fontSize=14;fontFamily=Times New Roman;" edge="1" parent="EwP4T6tAKVzHk8vb18PM-12">
          <mxGeometry x="0.0557" y="10" relative="1" as="geometry">
            <mxPoint x="-135" y="600" as="sourcePoint" />
            <mxPoint x="45" y="600" as="targetPoint" />
            <mxPoint as="offset" />
          </mxGeometry>
        </mxCell>
        <mxCell id="EwP4T6tAKVzHk8vb18PM-20" value="" style="verticalAlign=bottom;endArrow=none;dashed=1;endSize=8;exitX=1.001;exitY=0.444;shadow=0;strokeWidth=1;fontSize=14;fontFamily=Times New Roman;exitDx=0;exitDy=0;exitPerimeter=0;entryX=-0.002;entryY=0.444;entryDx=0;entryDy=0;entryPerimeter=0;endFill=0;" edge="1" parent="1" source="EwP4T6tAKVzHk8vb18PM-1" target="EwP4T6tAKVzHk8vb18PM-1">
          <mxGeometry relative="1" as="geometry">
            <mxPoint x="275" y="476" as="targetPoint" />
          </mxGeometry>
        </mxCell>
        <mxCell id="EwP4T6tAKVzHk8vb18PM-21" value="&lt;span style=&quot;color: rgb(0 , 0 , 0) ; font-size: 14px ; font-style: normal ; font-weight: 400 ; letter-spacing: normal ; text-align: center ; text-indent: 0px ; text-transform: none ; word-spacing: 0px ; display: inline ; float: none ; background-color: rgb(255 , 255 , 255)&quot;&gt;[Mã QR sai định dạng]&lt;/span&gt;" style="text;whiteSpace=wrap;html=1;fontSize=14;fontFamily=Times New Roman;" vertex="1" parent="1">
          <mxGeometry x="100" y="300" width="60" height="50" as="geometry" />
        </mxCell>
        <mxCell id="EwP4T6tAKVzHk8vb18PM-22" value="callback" style="verticalAlign=bottom;endArrow=open;dashed=1;endSize=8;shadow=0;strokeWidth=1;fontSize=14;fontFamily=Times New Roman;" edge="1" parent="1" source="EwP4T6tAKVzHk8vb18PM-13">
          <mxGeometry x="-0.0909" y="-10" relative="1" as="geometry">
            <mxPoint x="370" y="740" as="targetPoint" />
            <mxPoint x="535" y="740" as="sourcePoint" />
            <mxPoint as="offset" />
          </mxGeometry>
        </mxCell>
        <mxCell id="EwP4T6tAKVzHk8vb18PM-25" value=":Firebase" style="shape=umlLifeline;perimeter=lifelinePerimeter;container=1;collapsible=0;recursiveResize=0;rounded=0;shadow=0;strokeWidth=1;fontSize=14;fontFamily=Times New Roman;" vertex="1" parent="1">
          <mxGeometry x="530" y="90" width="100" height="810" as="geometry" />
        </mxCell>
        <mxCell id="EwP4T6tAKVzHk8vb18PM-26" value="" style="points=[];perimeter=orthogonalPerimeter;rounded=0;shadow=0;strokeWidth=1;fontSize=14;fontFamily=Times New Roman;" vertex="1" parent="EwP4T6tAKVzHk8vb18PM-25">
          <mxGeometry x="45" y="80" width="10" height="710" as="geometry" />
        </mxCell>
        <mxCell id="EwP4T6tAKVzHk8vb18PM-24" value="Mã QR không đúng" style="verticalAlign=bottom;endArrow=open;dashed=1;endSize=8;shadow=0;strokeWidth=1;fontSize=14;fontFamily=Times New Roman;" edge="1" parent="1">
          <mxGeometry x="-0.0909" y="-10" relative="1" as="geometry">
            <mxPoint x="190" y="319.9999999999999" as="targetPoint" />
            <mxPoint x="355" y="319.9999999999999" as="sourcePoint" />
            <mxPoint as="offset" />
          </mxGeometry>
        </mxCell>
        <mxCell id="EwP4T6tAKVzHk8vb18PM-34" value="Lấy dữ liệu" style="verticalAlign=bottom;endArrow=block;entryX=0;entryY=0.63;shadow=0;strokeWidth=1;fontSize=14;fontFamily=Times New Roman;entryDx=0;entryDy=0;entryPerimeter=0;" edge="1" parent="1">
          <mxGeometry x="0.0217" relative="1" as="geometry">
            <mxPoint x="359.6666666666665" y="440" as="sourcePoint" />
            <mxPoint x="575" y="440" as="targetPoint" />
            <mxPoint as="offset" />
          </mxGeometry>
        </mxCell>
        <mxCell id="EwP4T6tAKVzHk8vb18PM-9" value="Hiển thị đơn hàng thanh toán" style="verticalAlign=bottom;endArrow=open;dashed=1;endSize=8;shadow=0;strokeWidth=1;fontSize=14;fontFamily=Times New Roman;" edge="1" parent="1">
          <mxGeometry x="0.0303" y="-10" relative="1" as="geometry">
            <mxPoint x="190" y="470" as="targetPoint" />
            <mxPoint x="355" y="470" as="sourcePoint" />
            <mxPoint as="offset" />
          </mxGeometry>
        </mxCell>
        <mxCell id="EwP4T6tAKVzHk8vb18PM-31" value="Chọn mã giảm giá  &#xa;cho đơn hàng" style="verticalAlign=bottom;endArrow=block;shadow=0;strokeWidth=1;fontSize=14;fontFamily=Times New Roman;" edge="1" parent="1">
          <mxGeometry x="0.0557" y="10" relative="1" as="geometry">
            <mxPoint x="180" y="550" as="sourcePoint" />
            <mxPoint x="360" y="550" as="targetPoint" />
            <mxPoint as="offset" />
          </mxGeometry>
        </mxCell>
      </root>
    </mxGraphModel>
  </diagram>
</mxfile>
